<?xml version="1.0" encoding="UTF-8"?>
<!DOCTYPE svg PUBLIC "-//W3C//DTD SVG 1.1//EN" "http://www.w3.org/Graphics/SVG/1.1/DTD/svg11.dtd">
<!-- Creator: CorelDRAW 2018 (64-Bit) -->
<svg xmlns="http://www.w3.org/2000/svg" xml:space="preserve" width="130mm" height="79mm" version="1.1" style="shape-rendering:geometricPrecision; text-rendering:geometricPrecision; image-rendering:optimizeQuality; fill-rule:evenodd; clip-rule:evenodd"
viewBox="0 0 130 79"
 xmlns:xlink="http://www.w3.org/1999/xlink">
 <defs>
  <style type="text/css">
   <![CDATA[
    .fil2 {fill:#FFD500}
    .fil0 {fill:#EE741D}
    .fil1 {fill:#2B2927}
   ]]>
  </style>
 </defs>
 <g id="Слой_x0020_1">
  <metadata id="CorelCorpID_0Corel-Layer"/>
  <g id="_2298553313552">
   <g>
    <path class="fil0" d="M66.4033 77.5061c-1.0007,-0.0199 -1.7858,-0.8774 -1.7863,-1.8781 -0.0019,-3.8169 -0.2136,-6.4801 -0.386,-8.0173l-0.1238 -0.1093 -1.9723 0c-1.5362,0 -2.7734,4.4646 -2.7768,8.1683 -0.0005,1.01 -0.8118,1.8364 -1.8223,1.8364l-0.9128 0c-1.0007,0 -1.8562,-0.7827 -1.8776,-1.783 -0.015,-0.7171 0.3836,-1.342 0.9735,-1.6528l0.0665 -0.0985c0.1258,-1.5761 0.4259,-3.4406 0.9818,-5.0963 1.3935,-4.1485 3.6882,-5.0191 5.3677,-5.0191l3.6659 0c0.8706,-0.0005 1.6198,0.6157 1.7882,1.4698 0.0277,0.1398 0.6735,3.4964 0.6735,10.3571 0,1.0192 -0.8361,1.8427 -1.8592,1.8228z"/>
    <path class="fil0" d="M25.0524 67.5014c-1.7533,0 -3.1798,1.4265 -3.1798,3.1798 0,1.7533 1.4265,3.1799 3.1798,3.1799 1.7533,0 3.1798,-1.4266 3.1798,-3.1799 0,-1.7533 -1.4265,-3.1798 -3.1798,-3.1798zm0 10.0047c-3.7635,0 -6.8253,-3.0619 -6.8253,-6.8249 0,-3.7634 3.0618,-6.8248 6.8253,-6.8248 3.7635,-0.0005 6.8248,3.0614 6.8248,6.8248 0,3.763 -3.0613,6.8249 -6.8248,6.8249z"/>
    <path class="fil0" d="M76.9295 67.5014c-1.7533,0 -3.1799,1.4265 -3.1799,3.1798 0,1.7533 1.4266,3.1799 3.1799,3.1799 1.7533,0 3.1798,-1.4266 3.1798,-3.1799 0,-1.7533 -1.4265,-3.1798 -3.1798,-3.1798zm0 10.0047c-3.7635,0 -6.8248,-3.0619 -6.8248,-6.8249 0,-3.7634 3.0613,-6.8248 6.8248,-6.8248 3.7634,-0.0005 6.8253,3.0614 6.8253,6.8248 0,3.763 -3.0619,6.8249 -6.8253,6.8249z"/>
    <path class="fil0" d="M95.1059 63.8564c-1.0032,0.0185 -1.7888,0.8793 -1.7888,1.883l0.0005 3.712 -0.1321 0.1243c-2.2184,-0.1141 -3.6595,-0.439 -4.2917,-0.9721 -0.4579,-0.3855 -0.6079,-1.0852 -0.6108,-2.8686 -0.002,-0.9993 -0.7837,-1.8572 -1.7829,-1.8786 -1.0245,-0.0218 -1.8626,0.8026 -1.8626,1.8223 0.0005,1.7324 0,4.1057 1.9072,5.7129 1.3188,1.1109 3.3595,1.6834 6.653,1.8344l0.1199 0.1238 0 2.2733c0,1.0036 0.7851,1.8645 1.7883,1.883 1.022,0.0184 1.8567,-0.8046 1.8567,-1.8228l0 -10.0046c0,-1.0182 -0.8347,-1.8412 -1.8567,-1.8223z"/>
    <path class="fil0" d="M50.8455 64.4182c-1.007,0 -1.8227,0.8162 -1.8227,1.8227l0 9.4424c0,1.007 0.8157,1.8228 1.8222,1.8228 1.0066,0 1.8228,-0.8158 1.8228,-1.8228l0 -9.4424c0,-1.0065 -0.8162,-1.8227 -1.8223,-1.8227z"/>
    <path class="fil0" d="M50.8455 57.6633c-1.007,0 -1.8227,0.8206 -1.8227,1.8252 0,1.005 0.8157,1.8198 1.8222,1.8198 1.0066,0 1.8228,-0.8148 1.8228,-1.8198l0 -0.0112c0,-1.0051 -0.8162,-1.814 -1.8223,-1.814z"/>
    <path class="fil0" d="M112.5068 74.2617l-4.9195 -4.1976 0.0053 -0.1942c1.3736,-1.0415 2.7938,-1.998 3.9266,-2.4981 0.8847,-0.3909 1.3654,-1.3877 1.042,-2.2991 -0.3569,-1.0051 -1.4814,-1.4833 -2.4438,-1.0662 -2.1169,0.9172 -4.75,2.9089 -6.7199,4.5422l-0.2034 -0.0961 0 -2.7132c0,-1.0037 -0.7847,-1.8645 -1.7883,-1.883 -1.0221,-0.0189 -1.8567,0.8046 -1.8567,1.8223l0 9.9444c0,1.0036 0.7851,1.8645 1.7882,1.883 1.0226,0.0184 1.8568,-0.8046 1.8568,-1.8228l0 -1.7737 0.0223 -0.0713c0.3695,-0.5395 0.7837,-1.0012 1.3013,-1.4591l0.1646 -0.0015 5.5002 4.6923c0.3433,0.2928 0.7638,0.4361 1.1818,0.4361 0.5302,0 1.0566,-0.2297 1.4183,-0.6764 0.6278,-0.7749 0.4831,-1.9208 -0.2758,-2.568z"/>
    <path class="fil0" d="M14.6384 77.674c-1.0036,-0.0179 -1.7887,-0.8788 -1.7887,-1.8824l0 -4.4991 -0.2205 -0.0786 -2.5107 3.0623c-0.234,0.285 -0.5395,0.5088 -0.892,0.6166 -0.7307,0.2243 -1.493,-0.0233 -1.9533,-0.5846l-2.537 -3.0943 -0.2204 0.0786 0 4.4991c0,1.0031 -0.7856,1.8645 -1.7888,1.8824 -1.022,0.019 -1.8567,-0.804 -1.8567,-1.8217l0 -9.9508c0,-0.6734 0.3418,-1.3163 0.9298,-1.644 0.7866,-0.438 1.7499,-0.2394 2.3025,0.434l4.484 5.4692 0.1923 0 4.451 -5.4289c0.4471,-0.5452 1.1633,-0.8205 1.8504,-0.6613 0.838,0.1942 1.4148,0.9357 1.4148,1.7766l0 10.0047c0,1.0182 -0.8346,1.8412 -1.8567,1.8222z"/>
    <path class="fil0" d="M40.0834 73.913c-1.7533,0 -3.1798,-1.4265 -3.1798,-3.1798 0,-1.7533 1.4265,-3.1798 3.1798,-3.1798 1.7538,0 3.1798,1.4265 3.1798,3.1798 0.0005,1.7533 -1.426,3.1798 -3.1798,3.1798zm0.7992 -9.622c-0.9012,-0.1059 -1.7708,-0.0262 -2.5792,0.201l-0.1423 -0.1782c0.2142,-0.3996 0.4385,-0.688 0.6516,-0.8948 0.7798,-0.7556 1.7577,-0.7842 3.0536,-0.7439 0.2132,0.0068 0.4132,0.0126 0.5963,0.0126 1.0216,0 1.847,-0.8405 1.8217,-1.8679 -0.0237,-0.9881 -0.8628,-1.7727 -1.8518,-1.7771 -0.1394,-0.0005 -0.2904,-0.0058 -0.4511,-0.0106 -1.4052,-0.0452 -3.7567,-0.119 -5.7051,1.7693 -1.9204,1.8611 -2.8541,5.1094 -2.8541,9.9318 0,3.7984 3.109,6.7729 6.6733,6.7729 3.8048,0 6.871,-3.2207 6.6161,-7.0793 -0.2093,-3.1623 -2.6817,-5.7653 -5.829,-6.1358z"/>
    <path class="fil0" d="M121.1646 73.8737c-1.7567,0 -3.1813,-1.4246 -3.1813,-3.1813 0,-1.7572 1.4246,-3.1818 3.1813,-3.1818 1.7572,0 3.1817,1.4246 3.1817,3.1818 0,1.7567 -1.4245,3.1813 -3.1817,3.1813zm4.9525 -7.9542c-1.3173,-1.3498 -3.0409,-2.0631 -4.9846,-2.0631 -3.7634,-0.0005 -6.8253,3.0614 -6.8253,6.8248 0,3.763 3.0619,6.8249 6.8253,6.8249 1.63,0 3.2148,-0.8274 4.4466,-2.0107l-0.0014 0.1457c-0.0233,1.0051 0.7715,1.8397 1.7771,1.8645l0.0456 0.0005c0.9857,0 1.7965,-0.7866 1.8213,-1.7776 0.0165,-0.6613 0.0685,-6.5563 -3.1046,-9.809z"/>
   </g>
   <g>
    <path class="fil1" d="M92.9044 7.4131c-1.0215,-3.3228 -4.1137,-5.7387 -7.7714,-5.7387 -3.6574,-0.0002 -6.7498,0.503 -7.7711,3.8257l-24.6288 0c-1.0212,-3.3227 -4.1134,-3.8257 -7.7711,-3.8257 -3.6577,-0.0002 -6.7498,2.4159 -7.7711,5.7387 -0.2325,0.7561 -0.3588,1.5588 -0.3588,2.3911l0 24.5489c0,6.251 5.0672,11.3182 11.3182,11.3182l33.7947 0c6.2507,0 11.318,-5.0672 11.318,-11.3182l0 -24.5489c0,-0.8323 -0.1264,-1.635 -0.3586,-2.3911z"/>
    <path class="fil2" d="M84.3037 23.5654c-0.1004,0.4084 -2.6495,10.0032 -19.5509,10.0032 -16.901,0 -19.4503,-9.5948 -19.5506,-10.0032 -0.1087,-0.443 0.1622,-0.8904 0.6052,-0.9991 0.4432,-0.1084 0.8902,0.1625 0.9988,0.6052 0.0905,0.3533 2.4195,8.7455 17.9466,8.7455 15.5273,0 17.8561,-8.3922 17.9477,-8.7493 0.1125,-0.4404 0.5599,-0.7104 1.0016,-0.5982 0.4406,0.1106 0.71,0.5544 0.6016,0.9959zm-27.8802 -9.9046c0.8031,-0.1123 1.5579,0.5397 1.686,1.4559 0.1281,0.9163 -0.4193,1.7503 -1.2224,1.8624 -0.8031,0.1123 -1.5579,-0.5397 -1.6858,-1.4559 -0.1281,-0.9165 0.4191,-1.7503 1.2222,-1.8624zm7.6722 5.0124c0.1719,-0.0043 0.3435,-0.0055 0.5171,-0.0055l0.187 0.0004c1.3438,0.0192 2.6977,0.1996 3.9153,0.5213 1.2194,0.324 2.2601,0.774 3.0094,1.3007 0.8445,0.5922 1.2268,1.21 1.1361,1.8361 -0.0796,0.5546 -0.4498,1.1831 -1.1001,1.8681 -0.3246,0.3411 -0.7145,0.6906 -1.1583,1.039 -0.8923,0.7012 -1.9701,1.3637 -3.0351,1.8649 -0.8629,0.4039 -1.8667,0.8347 -2.858,0.8347l-0.0003 0c-0.1302,0 -0.2591,-0.0075 -0.3831,-0.0227 -0.7423,-0.0885 -1.717,-0.429 -2.7445,-0.9582 -0.9741,-0.503 -1.9573,-1.1543 -2.769,-1.8338 -0.4344,-0.3633 -0.8131,-0.7273 -1.1256,-1.0817 -0.6276,-0.7102 -0.9801,-1.3564 -1.0479,-1.9204 -0.0752,-0.6455 0.3131,-1.2409 1.1871,-1.8201 0.6739,-0.4427 1.5771,-0.8248 2.6121,-1.1045 1.122,-0.3042 2.387,-0.4833 3.6578,-0.5183zm7.3182 -3.4773c0.0796,-0.922 0.799,-1.6126 1.6068,-1.543 0.808,0.0698 1.3985,0.8736 1.3188,1.7953 -0.0796,0.9218 -0.7988,1.6128 -1.6068,1.543 -0.8078,-0.0696 -1.3982,-0.8735 -1.3188,-1.7953zm21.4905 -7.7828c-1.0213,-3.3228 -4.1137,-5.7387 -7.7714,-5.7387 -3.6574,-0.0002 -6.7498,0.503 -7.7711,3.8257l-24.6288 0c-1.0212,-3.3227 -4.1134,-3.8257 -7.7711,-3.8257 -3.6577,-0.0002 -6.7498,2.4159 -7.7711,5.7387 -0.2325,0.7561 -0.3588,1.5588 -0.3588,2.3911l0 24.5489c0,6.251 5.0672,11.3182 11.3182,11.3182l33.7947 0c6.2507,0 11.318,-5.0672 11.318,-11.3182l0 -24.5489c0,-0.8323 -0.1264,-1.635 -0.3586,-2.3911z"/>
   </g>
  </g>
 </g>
</svg>
